<svg width="136" height="19" viewBox="0 0 136 19" fill="none" xmlns="http://www.w3.org/2000/svg">
<path d="M8.28938 1.2425H11.4094L13.3838 6.97062L15.3825 1.2425H18.4781L15.5044 9.11562L17.6981 14.6244L22.5975 1.19375H26.2538L19.3313 18.5H16.4306L13.3838 11.2362L10.3613 18.5H7.46063L0.5625 1.19375H4.17L9.09375 14.6244L11.2388 9.11562L8.28938 1.2425ZM32.6503 18.7438C31.269 18.7438 30.0747 18.4431 29.0672 17.8419C28.0759 17.2406 27.304 16.4444 26.7515 15.4531C26.199 14.4456 25.9228 13.3569 25.9228 12.1869C25.9228 10.9844 26.1909 9.87937 26.7272 8.87187C27.2797 7.84812 28.0597 7.03562 29.0672 6.43437C30.0747 5.81687 31.2772 5.50812 32.6747 5.50812C34.0722 5.50812 35.2665 5.81687 36.2578 6.43437C37.249 7.03562 38.0047 7.84 38.5247 8.8475C39.0609 9.83875 39.329 10.9112 39.329 12.065C39.329 12.4875 39.3047 12.8531 39.2559 13.1619H29.384C29.4653 14.1531 29.8309 14.9331 30.4809 15.5019C31.1472 16.0706 31.9109 16.355 32.7722 16.355C33.4222 16.355 34.0315 16.2006 34.6003 15.8919C35.1853 15.5669 35.5834 15.1444 35.7947 14.6244L38.5978 15.4044C38.1265 16.3794 37.3709 17.1837 36.3309 17.8175C35.2909 18.435 34.064 18.7438 32.6503 18.7438ZM29.3109 11.09H35.9897C35.8922 10.1312 35.5265 9.35937 34.8928 8.77437C34.2753 8.17312 33.5197 7.8725 32.6259 7.8725C31.7484 7.8725 30.9928 8.17312 30.359 8.77437C29.7415 9.35937 29.3922 10.1312 29.3109 11.09ZM49.3138 18.7438C48.3388 18.7438 47.4695 18.5244 46.7057 18.0856C45.942 17.6469 45.3407 17.0456 44.902 16.2819V18.5H42.0501V0.70625H45.3163V7.97C45.7713 7.20625 46.3645 6.605 47.0957 6.16625C47.8432 5.7275 48.7126 5.50812 49.7038 5.50812C50.8088 5.50812 51.7757 5.81687 52.6045 6.43437C53.4495 7.03562 54.1076 7.84 54.5788 8.8475C55.0501 9.855 55.2857 10.96 55.2857 12.1625C55.2857 13.3975 55.0257 14.5106 54.5057 15.5019C53.9857 16.4931 53.2707 17.2812 52.3607 17.8662C51.467 18.4513 50.4513 18.7438 49.3138 18.7438ZM48.412 15.965C49.1107 15.965 49.7201 15.7944 50.2401 15.4531C50.7763 15.1119 51.1907 14.6569 51.4832 14.0881C51.792 13.5031 51.9463 12.8694 51.9463 12.1869C51.9463 11.4881 51.8001 10.8462 51.5076 10.2612C51.2313 9.66 50.8413 9.18062 50.3376 8.82312C49.8338 8.46562 49.257 8.28687 48.607 8.28687C47.892 8.28687 47.2338 8.53062 46.6326 9.01812C46.0476 9.48937 45.6088 10.0744 45.3163 10.7731V13.82C45.5276 14.4537 45.942 14.9737 46.5595 15.38C47.177 15.77 47.7945 15.965 48.412 15.965Z" fill="#2196F3"/>
<path d="M68.8574 5.7275C68.7112 5.565 68.4024 5.35375 67.9312 5.09375C67.4599 4.8175 66.8912 4.57375 66.2249 4.3625C65.5749 4.135 64.9006 4.02125 64.2018 4.02125C62.3656 4.02125 61.4474 4.67125 61.4474 5.97125C61.4474 6.4425 61.5937 6.81625 61.8862 7.0925C62.1787 7.36875 62.6174 7.60437 63.2024 7.79937C63.7874 7.99437 64.5187 8.20562 65.3962 8.43312C66.5337 8.72562 67.5168 9.06687 68.3456 9.45687C69.1906 9.84687 69.8324 10.3669 70.2712 11.0169C70.7262 11.6506 70.9537 12.4956 70.9537 13.5519C70.9537 14.7869 70.6531 15.7862 70.0518 16.55C69.4668 17.2975 68.6868 17.8419 67.7118 18.1831C66.7368 18.5244 65.6806 18.695 64.5431 18.695C63.2431 18.695 61.9512 18.5 60.6674 18.11C59.3999 17.7037 58.2706 17.1512 57.2793 16.4525L58.7662 13.5519C58.9124 13.6981 59.1724 13.8931 59.5462 14.1369C59.9199 14.3644 60.3749 14.6 60.9112 14.8437C61.4474 15.0712 62.0324 15.2662 62.6662 15.4287C63.2999 15.5912 63.9418 15.6725 64.5918 15.6725C66.4443 15.6725 67.3706 15.0794 67.3706 13.8931C67.3706 13.3894 67.1837 12.9831 66.8099 12.6744C66.4362 12.3656 65.9081 12.1056 65.2256 11.8944C64.5593 11.6831 63.7793 11.4475 62.8856 11.1875C61.7806 10.8787 60.8624 10.5375 60.1312 10.1637C59.4162 9.77375 58.8799 9.29437 58.5224 8.72562C58.1649 8.14062 57.9862 7.40125 57.9862 6.5075C57.9862 5.32125 58.2624 4.33 58.8149 3.53375C59.3837 2.72125 60.1474 2.11187 61.1062 1.70562C62.0649 1.28312 63.1293 1.07187 64.2993 1.07187C65.5018 1.07187 66.6231 1.26687 67.6631 1.65687C68.7031 2.04687 69.5968 2.49375 70.3443 2.9975L68.8574 5.7275ZM81.278 17.8419C80.8393 18.0369 80.2949 18.2319 79.6449 18.4269C79.0112 18.6219 78.353 18.7194 77.6705 18.7194C77.0693 18.7194 76.5168 18.6138 76.013 18.4025C75.5093 18.1912 75.103 17.8581 74.7943 17.4031C74.5018 16.9319 74.3555 16.3225 74.3555 15.575V8.23812H72.6737V5.7275H74.3555V1.58375H77.6218V5.7275H80.303V8.23812H77.6218V14.4781C77.6218 14.9169 77.7355 15.2337 77.963 15.4287C78.2068 15.6237 78.4993 15.7212 78.8405 15.7212C79.1818 15.7212 79.5149 15.6644 79.8399 15.5506C80.1649 15.4369 80.4249 15.3394 80.6199 15.2581L81.278 17.8419ZM83.5885 13.7225V5.7275H86.8548V13.0156C86.8548 14.9819 87.5616 15.965 88.9754 15.965C89.6091 15.965 90.2185 15.7781 90.8035 15.4044C91.4048 15.0144 91.8923 14.4294 92.266 13.6494V5.7275H95.5323V14.8437C95.5323 15.2012 95.5891 15.4531 95.7029 15.5994C95.8166 15.7294 96.0198 15.8106 96.3123 15.8431V18.5C95.9873 18.565 95.711 18.6056 95.4835 18.6219C95.2723 18.6381 95.0773 18.6463 94.8985 18.6463C94.3135 18.6463 93.8341 18.5162 93.4604 18.2562C93.1029 17.98 92.8916 17.6062 92.8266 17.135L92.7535 16.1112C92.1848 16.9887 91.4535 17.6469 90.5598 18.0856C89.666 18.5244 88.6829 18.7438 87.6104 18.7438C86.2941 18.7438 85.2948 18.3212 84.6123 17.4762C83.9298 16.615 83.5885 15.3637 83.5885 13.7225ZM98.7294 12.1137C98.7294 10.895 98.9731 9.78187 99.4606 8.77437C99.9481 7.76687 100.623 6.97062 101.484 6.38562C102.345 5.80062 103.328 5.50812 104.433 5.50812C105.376 5.50812 106.221 5.74375 106.968 6.215C107.732 6.67 108.325 7.255 108.748 7.97V0.70625H112.014V14.8437C112.014 15.2012 112.071 15.4531 112.184 15.5994C112.298 15.7294 112.493 15.8106 112.769 15.8431V18.5C112.184 18.6138 111.721 18.6706 111.38 18.6706C110.795 18.6706 110.308 18.5244 109.918 18.2319C109.544 17.9394 109.333 17.5575 109.284 17.0862L109.235 16.2819C108.764 17.0781 108.122 17.6875 107.309 18.11C106.513 18.5325 105.676 18.7438 104.799 18.7438C103.613 18.7438 102.564 18.4513 101.654 17.8662C100.744 17.265 100.029 16.4687 99.5094 15.4775C98.9894 14.47 98.7294 13.3487 98.7294 12.1137ZM108.748 13.82V10.7731C108.488 10.0581 108.041 9.465 107.407 8.99375C106.773 8.5225 106.123 8.28687 105.457 8.28687C104.791 8.28687 104.206 8.47375 103.702 8.8475C103.198 9.205 102.808 9.68437 102.532 10.2856C102.256 10.8706 102.118 11.5044 102.118 12.1869C102.118 12.8856 102.272 13.5275 102.581 14.1125C102.889 14.6812 103.304 15.1362 103.824 15.4775C104.36 15.8025 104.969 15.965 105.652 15.965C106.269 15.965 106.879 15.7619 107.48 15.3556C108.098 14.9494 108.52 14.4375 108.748 13.82ZM115.951 3.94812V0.70625H119.217V3.94812H115.951ZM115.951 18.5V5.7275H119.217V18.5H115.951ZM128.794 18.7438C127.396 18.7438 126.194 18.4431 125.186 17.8419C124.195 17.2244 123.431 16.4119 122.895 15.4044C122.359 14.3969 122.091 13.3081 122.091 12.1381C122.091 10.9519 122.359 9.855 122.895 8.8475C123.448 7.84 124.219 7.03562 125.211 6.43437C126.218 5.81687 127.413 5.50812 128.794 5.50812C130.175 5.50812 131.361 5.81687 132.353 6.43437C133.36 7.03562 134.132 7.84 134.668 8.8475C135.204 9.855 135.473 10.9519 135.473 12.1381C135.473 13.3081 135.204 14.3969 134.668 15.4044C134.132 16.4119 133.36 17.2244 132.353 17.8419C131.361 18.4431 130.175 18.7438 128.794 18.7438ZM125.454 12.1381C125.454 12.8856 125.601 13.5519 125.893 14.1369C126.186 14.7056 126.584 15.1525 127.088 15.4775C127.591 15.8025 128.16 15.965 128.794 15.965C129.411 15.965 129.972 15.8025 130.476 15.4775C130.979 15.1362 131.378 14.6812 131.67 14.1125C131.979 13.5275 132.133 12.8612 132.133 12.1137C132.133 11.3825 131.979 10.7325 131.67 10.1637C131.378 9.57875 130.979 9.12375 130.476 8.79875C129.972 8.4575 129.411 8.28687 128.794 8.28687C128.16 8.28687 127.591 8.4575 127.088 8.79875C126.584 9.12375 126.186 9.57875 125.893 10.1637C125.601 10.7325 125.454 11.3906 125.454 12.1381Z" fill="black"/>
</svg>
